# xmcd
#
# Track frame offsets:
#	150
#	2663
#	22366
#	37453
#	53215
#	69580
#	93468
#	106593
#	126823
#	141622
#	159478
#	177432
#	196010
#
# Disc length: 2729 seconds
#
# Revision: 1
# Processed by: cddbd v1.5.1PL0 Copyright (c) Steve Scherf et al.
# Submitted via: EasyCDDAExtractor 7.0.5.1
#
DISCID=ba0aa70d
DTITLE=Mikroklimat - Tobie Chwala
DYEAR=202
DGENRE=Gospel
TTITLE0=Tobie Chwala! 1
TTITLE1=Pan jest laskawy
TTITLE2=W pielgrzymce zycia
TTITLE3=Dziekuje za to, ze jestses
TTITLE4=Psalm 136
TTITLE5=Tylko Ty jestes brama
TTITLE6=Tobia chwala! 2
TTITLE7=Boza radosc
TTITLE8=Psalm 96
TTITLE9=Zaprosil nas na uczte Zbawiciel
TTITLE10=Daj mi Twa radosac
TTITLE11=Czekasz
TTITLE12=Tobie chwala! 3
EXTD=
EXTT0=
EXTT1=
EXTT2=
EXTT3=
EXTT4=
EXTT5=
EXTT6=
EXTT7=
EXTT8=
EXTT9=
EXTT10=
EXTT11=
EXTT12=
PLAYORDER=
